<svg width="226" height="42" viewBox="0 0 226 42" fill="none" xmlns="http://www.w3.org/2000/svg">
<g clip-path="url(#clip0_5_51)">
<path d="M79.0391 18.3967L76.6323 30.6819H74.0024L75.421 23.3824L70.7986 29.3836H69.5527L67.0609 23.3097L65.6052 30.6819H62.9752L65.398 18.3967H67.6826L70.7136 26.049L76.6323 18.3967H79.0391Z" fill="#F39200"/>
<path d="M89.4686 19.4122C90.2957 20.0856 90.7083 21.0247 90.7066 22.2296C90.7279 23.1787 90.4788 24.1139 89.9893 24.9231C89.4948 25.7026 88.7841 26.3164 87.9465 26.6874C86.9608 27.1176 85.8952 27.3271 84.8224 27.3015H82.1207L81.4619 30.6872H78.6407L81.0634 18.3967H85.9647C87.4754 18.3967 88.6433 18.7352 89.4686 19.4122ZM87.107 24.3359C87.3652 24.1054 87.5681 23.8181 87.7002 23.4961C87.8323 23.174 87.8902 22.8256 87.8694 22.4774C87.8863 22.2263 87.8421 21.9749 87.7407 21.7452C87.6392 21.5155 87.4837 21.3147 87.2876 21.1603C86.7917 20.8357 86.2057 20.6817 85.6167 20.7212H83.4198L82.5697 24.9851H84.9419C85.877 24.9851 86.5987 24.7687 87.107 24.3359Z" fill="#F39200"/>
<path d="M101.89 25.1628C101.247 26.0027 100.355 26.6116 99.3455 26.9002L101.457 30.6899H98.4954L96.5907 27.2503H94.1998L93.5251 30.6899H90.7065L93.1293 18.3967H98.0624C99.5625 18.3967 100.729 18.7298 101.561 19.396C102.393 20.0622 102.809 20.9987 102.807 22.2054C102.837 23.2674 102.514 24.3088 101.89 25.1628ZM99.1861 24.3359C99.4464 24.1067 99.6512 23.8199 99.7847 23.4976C99.9183 23.1754 99.9771 22.8263 99.9565 22.4774C99.973 22.2258 99.9281 21.974 99.8257 21.7443C99.7233 21.5145 99.5666 21.3139 99.3694 21.1603C98.8689 20.8369 98.2801 20.6832 97.6878 20.7212H95.4723L94.6249 24.9851H97.0157C97.9562 24.9851 98.6796 24.7687 99.1861 24.3359Z" fill="#F39200"/>
<path d="M107.756 20.6862L107.225 23.3528H112.851L112.418 25.5642H106.786L106.231 28.4085H112.846L112.378 30.6899H102.996L105.418 18.3967H114.575L114.108 20.6781L107.756 20.6862Z" fill="#F39200"/>
<path d="M56.7936 20.6862L56.2755 23.3528H61.902L61.4637 25.5642H55.8239L55.2714 28.4085H61.8834L61.4159 30.6899H52.0331L54.4585 18.3967H63.6155L63.1479 20.6781L56.7936 20.6862Z" fill="#F39200"/>
<path d="M123.594 24.3548H126.155L125.151 29.4105C124.513 29.9045 123.793 30.2785 123.026 30.5149C122.213 30.7742 121.367 30.905 120.515 30.9027C119.423 30.9329 118.339 30.709 117.346 30.2482C116.485 29.8373 115.76 29.1825 115.258 28.3627C114.759 27.5202 114.504 26.5522 114.522 25.5696C114.506 24.2492 114.835 22.948 115.476 21.7986C116.106 20.679 117.036 19.7636 118.159 19.159C119.386 18.5027 120.757 18.1737 122.144 18.2028C123.17 18.1769 124.191 18.3601 125.146 18.7415C125.96 19.0751 126.669 19.6273 127.196 20.3387L125.191 21.9872C124.821 21.5356 124.353 21.1778 123.823 20.9421C123.249 20.7146 122.637 20.6047 122.022 20.6189C121.168 20.6015 120.325 20.8163 119.58 21.2411C118.887 21.6447 118.319 22.2384 117.944 22.9542C117.554 23.7005 117.355 24.5339 117.365 25.3783C117.345 25.7989 117.416 26.2188 117.573 26.6087C117.73 26.9985 117.969 27.349 118.273 27.6355C118.879 28.1904 119.748 28.4678 120.879 28.4678C121.572 28.473 122.258 28.3231 122.888 28.0287L123.594 24.3548Z" fill="#F39200"/>
<path d="M136.112 28.0584H130.464L128.889 30.6899H125.895L133.737 18.3967H136.505L139.483 30.6819H136.677L136.112 28.0584ZM135.644 25.9036L134.624 21.1657L131.768 25.9036H135.644Z" fill="#F39200"/>
<path d="M152.531 25.2921C152.823 25.7426 152.97 26.273 152.954 26.8113C152.954 28.088 152.458 29.0532 151.466 29.7068C150.474 30.3604 149.153 30.6881 147.503 30.6899H141.159L143.571 18.3967H149.415C150.719 18.3967 151.723 18.6391 152.428 19.124C152.768 19.3474 153.044 19.6566 153.23 20.0211C153.417 20.3857 153.506 20.7931 153.49 21.2034C153.51 21.8914 153.306 22.5669 152.911 23.1265C152.503 23.6767 151.951 24.0995 151.317 24.3467C151.807 24.5308 152.23 24.8603 152.531 25.2921ZM149.511 28.0934C149.723 27.95 149.895 27.7533 150.01 27.5225C150.125 27.2916 150.179 27.0346 150.167 26.7763C150.167 25.9341 149.561 25.513 148.35 25.513H144.958L144.368 28.5486H147.675C148.318 28.5859 148.958 28.4274 149.511 28.0934ZM145.941 20.5515L145.37 23.4471H148.225C148.831 23.4841 149.433 23.3277 149.947 22.9999C150.148 22.8543 150.309 22.6599 150.417 22.4345C150.525 22.2091 150.575 21.9599 150.563 21.7098C150.563 20.9376 149.968 20.5515 148.778 20.5515H145.941Z" fill="#F39200"/>
<path d="M155.95 18.3967H158.772L156.349 30.6819H153.528L155.95 18.3967Z" fill="#F39200"/>
<path d="M161.194 18.3967H164.005L162.031 28.3627H168.107L167.639 30.6792H158.769L161.194 18.3967Z" fill="#F39200"/>
<path d="M171.648 18.3967H174.469L172.044 30.6819H169.222L171.648 18.3967Z" fill="#F39200"/>
<path d="M176.459 18.3967H181.538C182.632 18.3701 183.719 18.5823 184.726 19.0189C185.571 19.3927 186.288 20.0135 186.785 20.802C187.276 21.6203 187.526 22.5645 187.504 23.5225C187.534 24.8443 187.204 26.1489 186.551 27.2934C185.922 28.3717 184.999 29.2432 183.894 29.8038C182.667 30.4172 181.312 30.7212 179.944 30.6899H174.036L176.459 18.3967ZM180.042 28.3627C180.903 28.3842 181.754 28.1751 182.51 27.7567C183.189 27.3685 183.743 26.7895 184.104 26.0894C184.481 25.349 184.672 24.5255 184.659 23.6922C184.68 23.2871 184.612 22.8823 184.459 22.5073C184.307 22.1322 184.074 21.7963 183.777 21.5239C183.188 21.0049 182.333 20.7446 181.214 20.7428H178.807L177.306 28.3627H180.042Z" fill="#F39200"/>
<path d="M195.918 28.0584H190.273L188.711 30.6899H185.703L193.545 18.3967H196.316L199.291 30.6819H196.489L195.918 28.0584ZM195.45 25.9036L194.427 21.1657L191.572 25.9036H195.45Z" fill="#F39200"/>
<path d="M203.409 18.3967H208.48C209.575 18.3694 210.662 18.5816 211.668 19.0189C212.515 19.3918 213.233 20.0127 213.73 20.802C214.221 21.6205 214.47 22.5647 214.447 23.5225C214.477 24.8441 214.148 26.1486 213.496 27.2934C212.866 28.3715 211.944 29.243 210.839 29.8038C209.616 30.4157 208.266 30.7196 206.902 30.6899H200.984L203.409 18.3967ZM206.993 28.3627C207.853 28.3841 208.703 28.175 209.458 27.7567C210.137 27.369 210.691 26.7898 211.052 26.0894C211.429 25.349 211.62 24.5254 211.607 23.6922C211.628 23.2868 211.559 22.8818 211.406 22.5067C211.253 22.1316 211.02 21.7958 210.722 21.5239C210.134 21.0049 209.281 20.7446 208.162 20.7428H205.755L204.256 28.3627H206.993Z" fill="#F39200"/>
<path d="M219.178 20.6862L218.647 23.3528H224.273L223.84 25.5641H218.198L217.667 28.4085H224.279L223.811 30.6899H214.428L216.851 18.4048H226.011L225.543 20.6862H219.178Z" fill="#F39200"/>
<path d="M55.3882 13.4811C54.6118 13.2363 53.9048 12.8058 53.3268 12.2259L54.0228 11.0865C54.5466 11.631 55.1902 12.0418 55.9009 12.2851C56.6933 12.5832 57.5317 12.7355 58.3768 12.735C59.5776 12.735 60.5419 12.4961 61.2698 12.0185C61.6105 11.8156 61.8916 11.5241 62.0841 11.1742C62.2765 10.8242 62.3732 10.4285 62.3643 10.028C62.3726 9.82367 62.341 9.61971 62.2713 9.42786C62.2015 9.236 62.095 9.06005 61.9578 8.91016C61.6667 8.60892 61.3177 8.37148 60.9324 8.21254C60.3819 7.98821 59.8197 7.79489 59.2482 7.63344C58.5536 7.43638 57.8715 7.19713 57.2053 6.91696C56.6882 6.68968 56.2326 6.33954 55.877 5.89612C55.4918 5.3965 55.2957 4.77348 55.3245 4.13995C55.3065 3.34764 55.5485 2.5717 56.0125 1.93396C56.5061 1.28395 57.1697 0.787472 57.9279 0.501004C58.8262 0.15253 59.7821 -0.017552 60.7438 1.34576e-05C61.5276 -0.00330497 62.3084 0.0990405 63.0656 0.304374C63.7372 0.479083 64.3725 0.77468 64.9411 1.17708L64.3434 2.35684C63.8345 1.9807 63.2644 1.69808 62.6591 1.52185C62.0119 1.33025 61.3409 1.2341 60.6667 1.23634C59.4784 1.23634 58.5238 1.48503 57.803 1.98244C57.4649 2.19537 57.1871 2.49381 56.9971 2.84845C56.8071 3.20309 56.7113 3.60175 56.7192 4.00527C56.7111 4.21681 56.7445 4.42787 56.8175 4.62622C56.8904 4.82457 57.0015 5.00627 57.1442 5.16078C57.4442 5.47336 57.8065 5.7176 58.2068 5.87726C58.7603 6.10056 59.3252 6.29388 59.899 6.45637C60.5905 6.6519 61.2693 6.89118 61.9312 7.17284C62.4424 7.39189 62.8969 7.72738 63.2595 8.15329C63.633 8.62797 63.822 9.22495 63.7908 9.83135C63.8106 10.6331 63.5625 11.4181 63.0868 12.0589C62.5766 12.7063 61.9 13.1984 61.1316 13.4811C60.2116 13.8229 59.237 13.9891 58.2573 13.9713C57.2803 13.9763 56.3097 13.8104 55.3882 13.4811Z" fill="#1D71B8"/>
<path d="M69.0985 1.37368L68.1289 6.25972H75.1553L74.9216 7.49605H67.8977L66.8909 12.5976H75.0385L74.7728 13.8527H65.2094L67.919 0.115814H77.2168L76.9644 1.37099L69.0985 1.37368Z" fill="#1D71B8"/>
<path d="M91.2166 0.11851L88.507 13.8554H87.3461L80.8562 2.47264L78.6115 13.8527H77.2009L79.9105 0.115814H81.0714L87.5533 11.4959L89.798 0.115814L91.2166 0.11851Z" fill="#1D71B8"/>
<path d="M101.258 10.1842H93.6925L91.3521 13.8527H89.8033L98.7053 0.115814H100.116L103.601 13.8527H102.169L101.258 10.1842ZM100.993 9.00711L99.1543 1.59186L94.4336 9.00711H100.993Z" fill="#1D71B8"/>
<path d="M107.645 13.2548C106.739 12.8228 105.981 12.1258 105.469 11.2535C104.956 10.3433 104.698 9.30874 104.722 8.261C104.706 6.80974 105.055 5.37824 105.737 4.10221C106.409 2.8512 107.412 1.81493 108.633 1.10972C109.953 0.35216 111.449 -0.0311615 112.966 -1.21143e-05C113.952 -0.0177322 114.931 0.159765 115.85 0.522531C116.621 0.81754 117.293 1.33078 117.784 2.00127L116.778 2.90629C115.915 1.82888 114.606 1.29018 112.851 1.29018C111.614 1.26986 110.394 1.59706 109.329 2.2356C108.331 2.83518 107.514 3.70063 106.967 4.73788C106.409 5.79999 106.123 6.98745 106.136 8.19097C106.136 9.56466 106.57 10.6573 107.44 11.469C108.31 12.2806 109.549 12.6856 111.159 12.6838C112.93 12.6838 114.362 12.1451 115.455 11.0676L116.286 12.0265C115.653 12.6822 114.878 13.18 114.023 13.481C113.067 13.8273 112.058 13.9997 111.042 13.9901C109.869 14.0131 108.706 13.7615 107.645 13.2548Z" fill="#1D71B8"/>
<path d="M41.0883 19.2479V0.258575H22.3598L24.8915 2.8255L0 28.0638V36.5079L24.3363 11.8326L29.6732 17.2439L5.33693 41.9192H13.6651L38.5566 16.681L41.0883 19.2479Z" fill="#1D71B8"/>
<path d="M1.16208e-05 5.19847V16.9611L16.4704 0.261261H4.85877C4.21981 0.261259 3.58713 0.389041 2.99694 0.637291C2.40676 0.885542 1.87066 1.24938 1.41935 1.70798C0.968029 2.16659 0.610356 2.71095 0.366806 3.3099C0.123256 3.90884 -0.00138577 4.55062 1.16208e-05 5.19847Z" fill="#F39200"/>
<path d="M41.0882 25.2302L24.6179 41.93H36.2268C36.8669 41.9303 37.5007 41.8024 38.0919 41.5537C38.6831 41.3049 39.22 40.9402 39.6717 40.4804C40.1235 40.0206 40.4812 39.4748 40.7242 38.8745C40.9673 38.2741 41.091 37.631 41.0882 36.982V25.2302Z" fill="#F39200"/>
<path d="M56.496 41.938H55.529L55.1571 40.9415H53.4437L53.0691 41.938H52.1154L53.7598 37.852H54.8782L56.496 41.938ZM53.6535 40.3219H54.9473L54.2911 38.5254L53.6535 40.3219Z" fill="#1D71B8"/>
<path d="M57.1602 41.9381V37.852H59.118C59.5375 37.8199 59.9564 37.9216 60.3161 38.1429C60.4427 38.2373 60.5443 38.3619 60.612 38.5057C60.6797 38.6495 60.7112 38.808 60.7039 38.9671C60.7043 39.1816 60.6267 39.3887 60.4861 39.5489C60.3194 39.7313 60.0926 39.8453 59.8485 39.8694C60.1175 39.8901 60.3715 40.0032 60.5684 40.19C60.6489 40.271 60.7125 40.3675 60.7554 40.474C60.7983 40.5804 60.8197 40.6945 60.8182 40.8095C60.8256 40.9729 60.7911 41.1356 60.718 41.2815C60.6449 41.4274 60.5357 41.5515 60.4011 41.6418C60.0356 41.8636 59.6121 41.967 59.1871 41.9381H57.1602ZM58.0687 39.5678H58.9958C59.4872 39.5678 59.7343 39.3927 59.7343 39.0291C59.7343 38.6654 59.4872 38.5038 58.9958 38.5038H58.0687V39.5678ZM58.0687 41.2943H59.1047C59.3028 41.3103 59.5005 41.2601 59.6679 41.1516C59.7271 41.1051 59.7744 41.0448 59.8058 40.9759C59.8372 40.907 59.8519 40.8315 59.8485 40.7556C59.8526 40.6797 59.8382 40.6039 59.8067 40.5349C59.7752 40.4659 59.7276 40.4057 59.6679 40.3597C59.4984 40.2567 59.3017 40.2097 59.1047 40.225H58.0687V41.2943Z" fill="#1D71B8"/>
<path d="M63.6819 37.852C64.1049 37.827 64.5242 37.9445 64.8746 38.186C65.0096 38.2947 65.1186 38.4329 65.1936 38.5903C65.2686 38.7477 65.3075 38.9202 65.3075 39.095C65.3075 39.2698 65.2686 39.4424 65.1936 39.5998C65.1186 39.7572 65.0096 39.8954 64.8746 40.0041C64.5228 40.2345 64.108 40.3458 63.6898 40.3219L63.5942 40.3731H62.6325V41.938H61.7134V37.852H63.6819ZM63.5756 39.7213C63.7806 39.7363 63.9851 39.6854 64.16 39.5758C64.2213 39.5188 64.2702 39.4495 64.3037 39.3723C64.3371 39.2951 64.3544 39.2117 64.3544 39.1274C64.3544 39.043 64.3371 38.9596 64.3037 38.8824C64.2702 38.8052 64.2213 38.7359 64.16 38.6789C63.9851 38.5693 63.7806 38.5184 63.5756 38.5334H62.6325V39.7213H63.5756ZM64.1228 39.9017L65.5733 41.938H64.5107L63.3232 40.1495L64.1228 39.9017Z" fill="#1D71B8"/>
<path d="M67.2522 37.852V41.938H66.3171V37.852H67.2522Z" fill="#1D71B8"/>
<path d="M72.2571 37.852V41.938H71.1945L69.6298 39.5354L69.2367 38.8674L69.2659 39.5731V41.938H68.4238V37.852H69.4864L71.0511 40.2492L71.4362 40.9226H71.4495L71.423 40.2169V37.852H72.2571Z" fill="#1D71B8"/>
<path d="M75.15 37.852C75.7396 37.8171 76.3203 38.0096 76.7758 38.3907C77.1452 38.8059 77.3497 39.3452 77.3497 39.9044C77.3497 40.4636 77.1452 41.003 76.7758 41.4182C76.321 41.8005 75.7397 41.9931 75.15 41.9569H73.418V37.852H75.15ZM75.1022 41.2593C75.2773 41.2721 75.4531 41.2475 75.6183 41.1872C75.7835 41.1269 75.9343 41.0322 76.0612 40.9091C76.2701 40.6139 76.3825 40.2597 76.3825 39.8964C76.3825 39.533 76.2701 39.1788 76.0612 38.8836C75.9347 38.76 75.7839 38.6649 75.6186 38.6045C75.4534 38.5442 75.2774 38.52 75.1022 38.5334H74.3557V41.2593H75.1022Z" fill="#1D71B8"/>
<path d="M80.2213 37.79C80.6176 37.7787 81.0107 37.8656 81.3663 38.0432C81.6789 38.2046 81.937 38.4569 82.1075 38.7678C82.2804 39.1177 82.3705 39.5037 82.3705 39.895C82.3705 40.2864 82.2804 40.6724 82.1075 41.0223C81.9376 41.3336 81.6794 41.5861 81.3663 41.7468C81.0107 41.9244 80.6176 42.0113 80.2213 42C79.8243 42.0104 79.4306 41.9235 79.0737 41.7468C78.7598 41.5863 78.5007 41.3338 78.3299 41.0223C78.1587 40.6718 78.0697 40.2861 78.0697 39.895C78.0697 39.504 78.1587 39.1182 78.3299 38.7678C78.5015 38.4568 78.7604 38.2046 79.0737 38.0432C79.4306 37.8665 79.8243 37.7797 80.2213 37.79ZM80.2213 38.4904C79.9968 38.4836 79.7747 38.5385 79.5785 38.6493C79.3991 38.7616 79.2582 38.9271 79.1747 39.1233C78.9904 39.6199 78.9904 40.1675 79.1747 40.664C79.2574 40.8615 79.3985 41.028 79.5785 41.1408C79.774 41.2536 79.9965 41.3096 80.2213 41.3024C80.4445 41.3093 80.6652 41.2533 80.8589 41.1408C81.0389 41.028 81.18 40.8615 81.2627 40.664C81.447 40.1675 81.447 39.6199 81.2627 39.1233C81.1792 38.9271 81.0383 38.7616 80.8589 38.6493C80.6645 38.5388 80.4441 38.4839 80.2213 38.4904Z" fill="#1D71B8"/>
<path d="M87.2584 37.852C87.56 37.8434 87.8602 37.8975 88.1404 38.0109C88.3673 38.1034 88.5635 38.2594 88.7062 38.4607C88.8366 38.6739 88.9056 38.9197 88.9056 39.1705C88.9056 39.4213 88.8366 39.6671 88.7062 39.8802C88.5645 40.0831 88.368 40.2402 88.1404 40.3327C87.8596 40.444 87.5598 40.4971 87.2584 40.4889H86.318V41.938H85.3723V37.852H87.2584ZM87.1176 39.8156C87.3396 39.8321 87.5607 39.7744 87.7472 39.6513C87.8135 39.5902 87.8664 39.5157 87.9026 39.4327C87.9388 39.3497 87.9575 39.2599 87.9575 39.1691C87.9575 39.0783 87.9388 38.9886 87.9026 38.9055C87.8664 38.8225 87.8135 38.7481 87.7472 38.687C87.5598 38.5663 87.3391 38.5096 87.1176 38.5254H86.3207V39.8156H87.1176Z" fill="#1D71B8"/>
<path d="M91.6895 37.79C92.0857 37.7793 92.4786 37.8662 92.8344 38.0432C93.1459 38.2062 93.4036 38.4581 93.5756 38.7678C93.7467 39.1182 93.8358 39.504 93.8358 39.895C93.8358 40.286 93.7467 40.6718 93.5756 41.0222C93.4043 41.3325 93.1465 41.5846 92.8344 41.7468C92.4747 41.9137 92.0837 42.0001 91.6881 42.0001C91.2925 42.0001 90.9016 41.9137 90.5419 41.7468C90.2272 41.5864 89.9672 41.334 89.7954 41.0222C89.6242 40.6718 89.5352 40.286 89.5352 39.895C89.5352 39.504 89.6242 39.1182 89.7954 38.7678C89.9679 38.4566 90.2277 38.2044 90.5419 38.0432C90.8986 37.8659 91.2924 37.779 91.6895 37.79ZM91.6895 38.4903C91.4649 38.4832 91.2427 38.5381 91.0466 38.6493C90.8666 38.7607 90.7254 38.9265 90.6428 39.1233C90.4555 39.6193 90.4555 40.168 90.6428 40.664C90.7246 40.862 90.8659 41.0288 91.0466 41.1407C91.2433 41.2469 91.4627 41.3024 91.6855 41.3024C91.9083 41.3024 92.1277 41.2469 92.3244 41.1407C92.5051 41.0288 92.6464 40.862 92.7282 40.664C92.9125 40.1674 92.9125 39.6199 92.7282 39.1233C92.6456 38.9265 92.5044 38.7607 92.3244 38.6493C92.1308 38.5392 91.9114 38.4842 91.6895 38.4903Z" fill="#1D71B8"/>
<path d="M96.7475 37.852C97.1705 37.8275 97.5897 37.9449 97.9403 38.186C98.0753 38.2947 98.1843 38.4329 98.2593 38.5903C98.3342 38.7477 98.3731 38.9203 98.3731 39.0951C98.3731 39.2699 98.3342 39.4424 98.2593 39.5998C98.1843 39.7572 98.0753 39.8954 97.9403 40.0041C97.5883 40.2342 97.1736 40.3454 96.7555 40.322L96.6598 40.3731H95.6982V41.9381H94.7764V37.852H96.7475ZM96.6386 39.7213C96.8445 39.7364 97.0498 39.6855 97.2257 39.5759C97.2869 39.5188 97.3359 39.4495 97.3693 39.3723C97.4028 39.2951 97.4201 39.2117 97.4201 39.1274C97.4201 39.0431 97.4028 38.9596 97.3693 38.8824C97.3359 38.8052 97.2869 38.7359 97.2257 38.6789C97.0498 38.5693 96.8445 38.5184 96.6386 38.5335H95.6982V39.7213H96.6386ZM97.1885 39.9018L98.6363 41.9381H97.5923L96.3942 40.1496L97.1885 39.9018Z" fill="#1D71B8"/>
<path d="M102.836 37.852V38.5388H101.341V41.938H100.406V38.5388H98.9019V37.852H102.836Z" fill="#1D71B8"/>
<path d="M106.906 41.938H105.939L105.567 40.9415H103.854L103.479 41.938H102.525L104.156 37.852H105.275L106.906 41.938ZM104.064 40.3219H105.357L104.706 38.5361L104.064 40.3219Z" fill="#1D71B8"/>
<path d="M109.169 37.79C109.532 37.7841 109.893 37.849 110.232 37.9813C110.534 38.1064 110.802 38.3021 111.016 38.5523L110.484 39.091C110.32 38.8861 110.111 38.7229 109.873 38.6144C109.636 38.5059 109.376 38.4551 109.116 38.4661C108.957 38.4626 108.798 38.4853 108.646 38.5334C108.542 38.5666 108.45 38.6292 108.38 38.7139C108.325 38.7845 108.295 38.8718 108.295 38.9617C108.296 39.017 108.309 39.0713 108.334 39.1204C108.359 39.1696 108.395 39.2121 108.439 39.2445C108.586 39.3412 108.752 39.4054 108.925 39.4331L109.759 39.6055C110.106 39.654 110.434 39.7943 110.71 40.0122C110.804 40.1002 110.879 40.2079 110.928 40.3278C110.978 40.4478 111.001 40.5772 110.997 40.7071C111.004 40.958 110.923 41.2034 110.769 41.3993C110.598 41.6026 110.376 41.7545 110.126 41.8384C109.821 41.9446 109.5 41.9956 109.177 41.9892C108.888 41.9925 108.6 41.9591 108.319 41.8896C108.077 41.8269 107.844 41.7318 107.626 41.6068C107.436 41.4971 107.264 41.3571 107.118 41.1919L107.65 40.6155C107.76 40.7533 107.891 40.8725 108.038 40.9684C108.202 41.0763 108.381 41.1589 108.569 41.2135C108.771 41.2735 108.98 41.3035 109.191 41.3024C109.349 41.3061 109.508 41.2861 109.661 41.2431C109.771 41.2159 109.871 41.158 109.95 41.0761C109.984 41.0404 110.01 40.998 110.027 40.9517C110.044 40.9054 110.051 40.8561 110.049 40.8068C110.048 40.7563 110.037 40.7064 110.017 40.6601C109.997 40.6139 109.968 40.5722 109.932 40.5374C109.803 40.4408 109.652 40.3804 109.493 40.3623L108.588 40.1765C108.355 40.1272 108.129 40.0513 107.913 39.9502C107.742 39.8698 107.594 39.7454 107.485 39.5893C107.387 39.4337 107.337 39.2516 107.342 39.0668C107.34 38.8296 107.416 38.5986 107.557 38.4095C107.721 38.2014 107.938 38.0423 108.184 37.9489C108.499 37.8322 108.834 37.7783 109.169 37.79Z" fill="#1D71B8"/>
<path d="M115.848 37.852C116.149 37.8433 116.448 37.8974 116.727 38.0109C116.954 38.1027 117.151 38.2588 117.293 38.4607C117.423 38.6738 117.492 38.9196 117.492 39.1704C117.492 39.4212 117.423 39.667 117.293 39.8802C117.152 40.0836 116.955 40.2408 116.727 40.3327C116.447 40.4439 116.148 40.4971 115.848 40.4889H114.905V41.938H113.972V37.852H115.848ZM115.704 39.8155C115.926 39.8327 116.148 39.7749 116.334 39.6512C116.4 39.5901 116.453 39.5157 116.489 39.4327C116.526 39.3497 116.544 39.2599 116.544 39.1691C116.544 39.0783 116.526 38.9885 116.489 38.9055C116.453 38.8225 116.4 38.748 116.334 38.687C116.147 38.5653 115.926 38.5086 115.704 38.5253H114.907V39.8155H115.704Z" fill="#1D71B8"/>
<path d="M121.902 41.938H120.932L120.56 40.9415H118.844L118.472 41.938H117.516L119.147 37.852H120.266L121.902 41.938ZM119.057 40.3219H120.351L119.702 38.5361L119.057 40.3219Z" fill="#1D71B8"/>
<path d="M124.537 37.852C124.96 37.8275 125.379 37.9449 125.73 38.186C125.865 38.2947 125.974 38.4329 126.049 38.5903C126.124 38.7477 126.163 38.9203 126.163 39.0951C126.163 39.2699 126.124 39.4424 126.049 39.5998C125.974 39.7572 125.865 39.8954 125.73 40.0041C125.377 40.2346 124.962 40.3458 124.543 40.322L124.45 40.3731H123.488V41.9381H122.563V37.852H124.537ZM124.428 39.7213C124.634 39.7364 124.84 39.6855 125.015 39.5759C125.076 39.5182 125.124 39.4487 125.156 39.3716C125.189 39.2945 125.206 39.2114 125.206 39.1274C125.206 39.0434 125.189 38.9603 125.156 38.8832C125.124 38.8061 125.076 38.7366 125.015 38.6789C124.84 38.5693 124.634 38.5184 124.428 38.5335H123.488V39.7213H124.428ZM124.978 39.9018L126.426 41.9381H125.377L124.179 40.1496L124.978 39.9018Z" fill="#1D71B8"/>
<path d="M131.064 41.938H130.095L129.723 40.9415H128.009L127.635 41.938H126.681L128.312 37.852H129.431L131.064 41.938ZM128.219 40.3219H129.513L128.862 38.5361L128.219 40.3219Z" fill="#1D71B8"/>
<path d="M135.448 37.79C135.844 37.779 136.237 37.8659 136.592 38.0432C136.905 38.2046 137.163 38.4569 137.334 38.7678C137.505 39.1182 137.594 39.504 137.594 39.895C137.594 40.286 137.505 40.6718 137.334 41.0222C137.164 41.3336 136.906 41.5861 136.592 41.7468C136.237 41.9241 135.844 42.011 135.448 42C135.05 42.0103 134.657 41.9235 134.3 41.7468C133.985 41.5871 133.726 41.3344 133.556 41.0222C133.383 40.6724 133.293 40.2864 133.293 39.895C133.293 39.5036 133.383 39.1177 133.556 38.7678C133.727 38.4562 133.986 38.2038 134.3 38.0432C134.657 37.8665 135.05 37.7797 135.448 37.79ZM135.448 38.4903C135.223 38.4836 135.001 38.5385 134.805 38.6493C134.625 38.7616 134.484 38.9271 134.401 39.1233C134.217 39.6199 134.217 40.1674 134.401 40.664C134.484 40.8614 134.625 41.028 134.805 41.1408C135.002 41.2469 135.222 41.3024 135.445 41.3024C135.668 41.3024 135.888 41.2469 136.085 41.1408C136.265 41.0287 136.405 40.8618 136.486 40.664C136.673 40.168 136.673 39.6193 136.486 39.1233C136.405 38.9267 136.264 38.7609 136.085 38.6493C135.891 38.5392 135.67 38.4843 135.448 38.4903Z" fill="#1D71B8"/>
<path d="M145.471 37.852V41.938H144.626V39.8075L144.674 38.6143H144.658L143.42 41.938H142.655L141.425 38.6143L141.472 39.8075V41.938H140.625V37.852H141.956L142.753 40.0822L143.037 41.0034L143.329 40.0876L144.126 37.852H145.471Z" fill="#1D71B8"/>
<path d="M146.637 41.9381V37.852H149.989V38.5388H147.572V39.5543H149.474V40.2142H147.572V41.2539H150.085V41.9407L146.637 41.9381Z" fill="#1D71B8"/>
<path d="M152.895 37.852C153.318 37.827 153.736 37.9445 154.086 38.186C154.221 38.2941 154.331 38.4321 154.407 38.5896C154.482 38.7471 154.522 38.9199 154.522 39.095C154.522 39.2702 154.482 39.443 154.407 39.6005C154.331 39.758 154.221 39.896 154.086 40.0041C153.734 40.2348 153.319 40.3461 152.901 40.3219L152.808 40.3731H151.846V41.938H150.924V37.852H152.895ZM152.787 39.7213C152.992 39.7363 153.196 39.6854 153.371 39.5758C153.432 39.5188 153.481 39.4495 153.515 39.3723C153.548 39.2951 153.565 39.2117 153.565 39.1274C153.565 39.043 153.548 38.9596 153.515 38.8824C153.481 38.8052 153.432 38.7359 153.371 38.6789C153.196 38.5693 152.992 38.5184 152.787 38.5334H151.846V39.7213H152.787ZM153.334 39.9017L154.784 41.938H153.735L152.537 40.1496L153.334 39.9017Z" fill="#1D71B8"/>
<path d="M159.316 40.8122C159.236 41.0634 159.097 41.2909 158.91 41.4748C158.721 41.6539 158.496 41.789 158.251 41.8707C157.983 41.9595 157.702 42.0032 157.42 42C157.022 42.011 156.629 41.9241 156.272 41.7468C155.957 41.5864 155.697 41.334 155.525 41.0223C155.354 40.6718 155.265 40.2861 155.265 39.895C155.265 39.504 155.354 39.1182 155.525 38.7678C155.698 38.4566 155.958 38.2044 156.272 38.0432C156.624 37.8668 157.013 37.7799 157.406 37.79C157.687 37.7865 157.967 37.8246 158.238 37.9032C158.472 37.9726 158.688 38.092 158.873 38.2533C159.048 38.4155 159.18 38.6204 159.255 38.8486L158.408 39.1772C158.357 38.9608 158.231 38.7699 158.054 38.6385C157.871 38.527 157.66 38.4727 157.446 38.4823C157.223 38.4776 157.002 38.5324 156.806 38.6412C156.621 38.7523 156.474 38.9176 156.383 39.1152C156.277 39.3581 156.226 39.6225 156.235 39.8883C156.227 40.1512 156.274 40.4128 156.373 40.6559C156.456 40.8549 156.599 41.0219 156.782 41.1327C156.985 41.2462 157.214 41.302 157.446 41.2943C157.67 41.2993 157.89 41.2365 158.078 41.1138C158.263 40.9856 158.397 40.7945 158.456 40.5751L159.316 40.8122Z" fill="#1D71B8"/>
<path d="M164.005 41.938H163.038L162.663 40.9415H160.95L160.578 41.938H159.624L161.256 37.852H162.374L164.005 41.938ZM161.163 40.3219H162.454L161.805 38.5361L161.163 40.3219Z" fill="#1D71B8"/>
<path d="M166.396 37.852C166.986 37.8161 167.567 38.0086 168.022 38.3907C168.393 38.8051 168.598 39.3447 168.598 39.9045C168.598 40.4642 168.393 41.0038 168.022 41.4182C167.567 41.8012 166.986 41.9939 166.396 41.9569H164.669V37.852H166.396ZM166.348 41.2593C166.523 41.2721 166.699 41.2475 166.864 41.1872C167.029 41.1269 167.18 41.0322 167.307 40.9091C167.516 40.6139 167.628 40.2597 167.628 39.8964C167.628 39.533 167.516 39.1788 167.307 38.8836C167.181 38.76 167.03 38.6649 166.864 38.6045C166.699 38.5442 166.523 38.52 166.348 38.5335H165.599V41.2593H166.348Z" fill="#1D71B8"/>
<path d="M171.459 37.79C171.855 37.7793 172.248 37.8662 172.604 38.0432C172.916 38.2062 173.173 38.4581 173.345 38.7678C173.516 39.1182 173.606 39.504 173.606 39.895C173.606 40.286 173.516 40.6718 173.345 41.0222C173.174 41.3325 172.916 41.5846 172.604 41.7468C172.244 41.9137 171.853 42.0001 171.458 42.0001C171.062 42.0001 170.671 41.9137 170.312 41.7468C169.997 41.5864 169.737 41.334 169.565 41.0222C169.394 40.6718 169.305 40.286 169.305 39.895C169.305 39.504 169.394 39.1182 169.565 38.7678C169.738 38.4566 169.997 38.2044 170.312 38.0432C170.668 37.8659 171.062 37.779 171.459 37.79ZM171.459 38.4903C171.235 38.4836 171.013 38.5385 170.816 38.6493C170.636 38.7607 170.495 38.9265 170.413 39.1233C170.228 39.6199 170.228 40.1674 170.413 40.664C170.494 40.862 170.636 41.0288 170.816 41.1407C171.013 41.2469 171.233 41.3024 171.457 41.3024C171.68 41.3024 171.9 41.2469 172.097 41.1407C172.276 41.0278 172.416 40.8612 172.498 40.664C172.682 40.1674 172.682 39.6199 172.498 39.1233C172.415 38.9272 172.275 38.7617 172.097 38.6493C171.902 38.5394 171.682 38.4846 171.459 38.4903Z" fill="#1D71B8"/>
<path d="M178.35 37.852C178.94 37.8171 179.52 38.0096 179.976 38.3907C180.345 38.8059 180.55 39.3452 180.55 39.9044C180.55 40.4636 180.345 41.003 179.976 41.4182C179.521 41.8005 178.94 41.9931 178.35 41.9569H176.623V37.852H178.35ZM178.302 41.2593C178.477 41.2721 178.653 41.2475 178.818 41.1872C178.984 41.1269 179.134 41.0322 179.261 40.9091C179.47 40.6139 179.583 40.2597 179.583 39.8964C179.583 39.533 179.47 39.1788 179.261 38.8836C179.135 38.76 178.984 38.6649 178.819 38.6045C178.653 38.5442 178.477 38.52 178.302 38.5334H177.553V41.2593H178.302Z" fill="#1D71B8"/>
<path d="M181.49 41.9381V37.852H184.843V38.5388H182.425V39.5543H184.327V40.2142H182.425V41.2539H184.936V41.9407L181.49 41.9381Z" fill="#1D71B8"/>
<path d="M191.202 37.852V38.5388H189.704V41.938H188.772V38.5388H187.265V37.852H191.202Z" fill="#1D71B8"/>
<path d="M193.939 37.852C194.361 37.827 194.779 37.9445 195.129 38.186C195.265 38.2941 195.374 38.4321 195.45 38.5896C195.526 38.7471 195.565 38.9199 195.565 39.095C195.565 39.2702 195.526 39.443 195.45 39.6005C195.374 39.758 195.265 39.896 195.129 40.0041C194.777 40.2348 194.362 40.3461 193.944 40.3219L193.851 40.3731H192.889V41.938H191.967V37.852H193.939ZM193.83 39.7213C194.036 39.7363 194.241 39.6855 194.417 39.5758C194.477 39.5182 194.525 39.4487 194.558 39.3715C194.591 39.2944 194.607 39.2113 194.607 39.1274C194.607 39.0434 194.591 38.9603 194.558 38.8832C194.525 38.8061 194.477 38.7365 194.417 38.6789C194.241 38.5693 194.036 38.5184 193.83 38.5334H192.889V39.7213H193.83ZM194.377 39.9017L195.827 41.938H194.778L193.58 40.1496L194.377 39.9017Z" fill="#1D71B8"/>
<path d="M200.452 41.938H199.485L199.111 40.9415H197.397L197.025 41.938H196.072L197.703 37.852H198.821L200.452 41.938ZM197.61 40.3219H198.901L198.253 38.5361L197.61 40.3219Z" fill="#1D71B8"/>
<path d="M201.116 41.9381V37.852H203.074C203.494 37.8199 203.913 37.9216 204.272 38.1429C204.399 38.2373 204.501 38.3619 204.568 38.5057C204.636 38.6495 204.667 38.808 204.66 38.9671C204.661 39.1816 204.583 39.3887 204.442 39.5489C204.276 39.7313 204.049 39.8453 203.805 39.8694C204.074 39.8901 204.328 40.0032 204.525 40.19C204.605 40.2713 204.668 40.368 204.711 40.4743C204.754 40.5807 204.775 40.6946 204.774 40.8095C204.78 40.9716 204.745 41.1326 204.672 41.2769C204.599 41.4213 204.491 41.5441 204.357 41.6337C203.991 41.8559 203.567 41.9593 203.141 41.93L201.116 41.9381ZM202.025 39.5678H202.952C203.444 39.5678 203.691 39.3927 203.691 39.0291C203.691 38.6654 203.444 38.5038 202.952 38.5038H202.025V39.5678ZM202.025 41.2943H203.056C203.254 41.3103 203.451 41.2601 203.619 41.1516C203.678 41.105 203.725 41.0448 203.757 40.9759C203.788 40.907 203.803 40.8315 203.799 40.7556C203.804 40.6797 203.789 40.6039 203.758 40.5349C203.726 40.4659 203.679 40.4057 203.619 40.3597C203.451 40.253 203.254 40.2021 203.056 40.2142H202.02L202.025 41.2943Z" fill="#1D71B8"/>
<path d="M209.482 41.938H208.512L208.14 40.9415H206.427L206.055 41.938H205.099L206.732 37.852H207.837L209.482 41.938ZM206.637 40.3219H207.93L207.28 38.5361L206.637 40.3219Z" fill="#1D71B8"/>
<path d="M211.081 41.2512H213.437V41.938H210.146V37.852H211.081V41.2512Z" fill="#1D71B8"/>
<path d="M215.151 37.852V41.938H214.213V37.852H215.151ZM217.608 39.53V40.2142H214.686V39.5274L217.608 39.53ZM218.057 37.852V41.938H217.135V37.852H218.057Z" fill="#1D71B8"/>
<path d="M221.152 37.79C221.548 37.7794 221.941 37.8662 222.297 38.0432C222.608 38.2062 222.866 38.4581 223.038 38.7678C223.209 39.1182 223.298 39.504 223.298 39.895C223.298 40.2861 223.209 40.6718 223.038 41.0223C222.867 41.3325 222.609 41.5846 222.297 41.7468C221.937 41.9137 221.546 42.0001 221.151 42.0001C220.755 42.0001 220.364 41.9137 220.004 41.7468C219.691 41.586 219.432 41.3336 219.26 41.0223C219.089 40.6718 219 40.2861 219 39.895C219 39.504 219.089 39.1182 219.26 38.7678C219.433 38.4566 219.693 38.2044 220.007 38.0432C220.363 37.8663 220.756 37.7795 221.152 37.79ZM221.152 38.4903C220.927 38.4836 220.704 38.5385 220.506 38.6493C220.328 38.7617 220.188 38.9273 220.105 39.1233C219.918 39.6193 219.918 40.168 220.105 40.664C220.187 40.8613 220.327 41.0279 220.506 41.1408C220.703 41.2537 220.926 41.3096 221.152 41.3024C221.374 41.3089 221.594 41.253 221.787 41.1408C221.967 41.0289 222.109 40.862 222.191 40.664C222.375 40.1675 222.375 39.6199 222.191 39.1233C222.108 38.9265 221.967 38.7608 221.787 38.6493C221.593 38.5392 221.374 38.4843 221.152 38.4903Z" fill="#1D71B8"/>
</g>
<defs>
<clipPath id="clip0_5_51">
<rect width="226" height="42" fill="white"/>
</clipPath>
</defs>
</svg>
